<?xml version="1.0" encoding="utf-8"?>
<!-- Generator: Adobe Illustrator 24.0.0, SVG Export Plug-In . SVG Version: 6.00 Build 0)  -->
<svg version="1.1" id="Layer_1" xmlns="http://www.w3.org/2000/svg" xmlns:xlink="http://www.w3.org/1999/xlink" x="0px" y="0px"
	 viewBox="0 0 708.66 198.43" style="enable-background:new 0 0 708.66 198.43;" xml:space="preserve">
<style type="text/css">
	.st0{fill:#800080;}
</style>
<path d="M209.59,118.06c-2.8-5.69-5.92-10.34-9.34-13.95c-3.97-4.33-8.49-7.85-13.54-10.56c3.97-2.34,7.59-5.23,10.83-8.67
	c2.71-3.07,5.19-6.86,7.45-11.38c2.25-4.51,3.39-10.01,3.39-16.52c0-7.4-1.36-14.3-4.07-20.71c-2.7-6.41-6.46-12.01-11.24-16.79
	c-4.79-4.78-10.38-8.53-16.79-11.24c-6.42-2.7-13.32-4.06-20.72-4.06H94.66c5.85,3.08,11.14,6.91,15.77,11.43
	c5.09,4.97,9.33,10.69,12.64,17.08v-2.78h32.5c8.13,0,14.66,2.48,19.63,7.44c4.97,4.97,7.45,11.51,7.45,19.63
	c0,8.13-2.48,14.68-7.45,19.64c-4.97,4.97-11.5,7.44-19.63,7.44h-24.85v24.37h27.56c8.84,0,16.02,2.76,21.53,8.26
	c5.5,5.51,8.26,12.69,8.26,21.53c0,8.85-2.76,16.02-8.26,21.53c-5.51,5.51-12.69,8.26-21.53,8.26h-35.21v-2.78
	c-3.31,6.39-7.55,12.11-12.64,17.08c-4.63,4.52-9.91,8.35-15.77,11.43h63.62c7.76,0,15.02-1.44,21.79-4.33
	c6.77-2.88,12.64-6.82,17.6-11.78c4.97-4.97,8.89-10.84,11.79-17.61c2.88-6.76,4.33-14.03,4.33-21.79
	C213.8,130.47,212.39,123.75,209.59,118.06z"/>
<path class="st0" d="M122.72,64.64v68.65c0,8.63-1.58,16.64-4.73,24.03c-3.16,7.4-7.54,13.82-13.13,19.28
	c-5.6,5.45-12.19,9.72-19.77,12.8c-3.03,1.23-6.16,2.22-9.4,2.95c-4.86,1.11-9.94,1.67-15.25,1.67c-10.29,0-18.91-1.78-25.86-5.34
	c-6.95-3.57-12.68-7.58-17.19-12.04c-5.05-4.98-9.21-10.78-12.46-17.37l21.67-12.91c1.8,4.3,4.24,8,7.31,11.1
	c2.52,2.76,6,5.25,10.42,7.48c4.43,2.24,9.8,3.35,16.11,3.35c5.05,0,9.8-0.91,14.22-2.74c4.43-1.83,8.31-4.36,11.64-7.59
	c3.35-3.23,5.96-6.97,7.86-11.25c1.89-4.28,2.84-8.86,2.84-13.74V64.96c0-4.88-0.95-9.46-2.84-13.73c-1.9-4.28-4.51-8.02-7.86-11.25
	c-3.34-3.23-7.22-5.75-11.64-7.59c-4.42-1.83-9.16-2.75-14.22-2.75c-6.32,0-11.68,1.26-16.11,3.78c-4.42,2.52-7.9,5.27-10.42,8.26
	c-3.07,3.36-5.51,7.28-7.31,11.75L4.93,40.53c3.25-6.76,7.41-12.86,12.46-18.31c4.51-4.5,10.24-8.67,17.19-12.53
	c6.95-3.85,15.57-5.78,25.86-5.78c5.31,0,10.39,0.56,15.25,1.68c3.24,0.73,6.36,1.72,9.4,2.95c7.58,3.08,14.18,7.35,19.77,12.8
	c5.6,5.46,9.98,11.89,13.13,19.28C121.15,48.01,122.72,56.02,122.72,64.64z"/>
<g>
	<g>
		<g>
			<polygon points="29.75,77.78 93.61,94.72 29.75,53.78 			"/>
		</g>
	</g>
	<g>
		<g>
			<polygon points="7.16,131.49 25.74,144.49 25.74,122.38 			"/>
		</g>
	</g>
	<g>
		<g>
			<polygon points="7.16,66.98 25.74,76.08 25.74,53.97 			"/>
		</g>
	</g>
	<g>
		<g>
			<polygon points="29.75,120.68 29.75,144.68 93.61,103.74 			"/>
		</g>
	</g>
	<g>
		<g>
			<polygon class="st0" points="5.69,95.17 24.49,79.37 5.69,70.16 			"/>
		</g>
	</g>
	<g>
		<g>
			<polygon class="st0" points="5.69,128.31 24.49,119.1 5.69,103.3 			"/>
		</g>
	</g>
	<g>
		<g>
			<polygon class="st0" points="29.75,117.15 97.29,99.23 29.75,81.32 			"/>
		</g>
	</g>
	<g>
		<g>
			<polygon points="6.52,99.23 25.74,115.38 25.74,83.08 			"/>
		</g>
	</g>
</g>
<g>
	<path class="st0" d="M252.67,125.21h-22.13v-16.42h13.83V20.61h-13.83V4.19h51c4.72,0,9.13,0.86,13.23,2.59
		c4.09,1.73,7.66,4.12,10.72,7.18c3.05,3.06,5.45,6.63,7.17,10.72c1.73,4.09,2.59,8.5,2.59,13.23c0,4.15-0.72,7.67-2.16,10.55
		c-1.44,2.88-3.03,5.3-4.75,7.26c-2.07,2.19-4.38,4.04-6.92,5.53c3.23,1.73,6.11,3.98,8.64,6.74c2.19,2.31,4.18,5.27,5.96,8.9
		c1.79,3.63,2.68,7.93,2.68,12.88c0,4.96-0.92,9.6-2.77,13.92c-1.85,4.32-4.35,8.07-7.52,11.24c-3.17,3.17-6.92,5.68-11.24,7.52
		c-4.32,1.84-8.96,2.77-13.92,2.77H252.67z M260.79,55.19h20.75c5.19,0,9.36-1.58,12.53-4.75c3.17-3.17,4.75-7.35,4.75-12.53
		s-1.59-9.36-4.75-12.53c-3.17-3.17-7.35-4.75-12.53-4.75h-20.75V55.19z M260.79,108.79h22.48c5.65,0,10.23-1.76,13.75-5.27
		c3.51-3.51,5.27-8.1,5.27-13.75c0-5.65-1.76-10.23-5.27-13.74c-3.52-3.51-8.1-5.27-13.75-5.27h-22.48V108.79z"/>
	<path class="st0" d="M327.35,125.21L365.39,4.19h17.29l38.04,121.02h-17.29l-9.51-29.39h-39.77l-9.51,29.39H327.35z M358.48,80.26
		h31.12l-15.56-49.27L358.48,80.26z"/>
	<path class="st0" d="M543.47,108.79v16.42h-30.26V30.98L491.6,73.34h-17.29L452.7,30.98v94.23h-16.42V4.19h19.88l26.8,51.87
		l26.8-51.87h19.88v104.6H543.47z"/>
	<path class="st0" d="M621.27,108.79v16.42h-77.8l52.73-104.6h-49.27V4.19H623l-52.73,104.6H621.27z"/>
	<path class="st0" d="M699.07,108.79v16.42h-77.8L674,20.61h-49.27V4.19h76.07l-52.73,104.6H699.07z"/>
</g>
<g>
	<path d="M230.8,177.07c0-1.96,0.36-3.91,1.08-5.82c0.72-1.92,1.77-3.63,3.16-5.14c1.38-1.51,3.07-2.73,5.07-3.67
		c2-0.94,4.27-1.41,6.82-1.41c3.01,0,5.61,0.65,7.81,1.95c2.2,1.3,3.83,2.99,4.91,5.08l-4.89,3.31c-0.43-0.91-0.95-1.67-1.57-2.29
		c-0.61-0.62-1.27-1.11-1.98-1.47c-0.71-0.36-1.44-0.63-2.21-0.79c-0.77-0.17-1.52-0.25-2.26-0.25c-1.6,0-2.99,0.32-4.17,0.95
		c-1.18,0.63-2.17,1.46-2.95,2.47c-0.78,1.01-1.38,2.16-1.77,3.44c-0.4,1.28-0.6,2.56-0.6,3.83c0,1.42,0.23,2.79,0.69,4.1
		c0.46,1.31,1.11,2.47,1.96,3.47c0.84,1,1.86,1.8,3.04,2.4c1.18,0.6,2.48,0.91,3.89,0.91c0.74,0,1.51-0.09,2.3-0.27
		c0.8-0.18,1.56-0.47,2.28-0.86c0.72-0.39,1.39-0.9,2-1.52s1.11-1.37,1.48-2.24l5.21,2.95c-0.52,1.21-1.27,2.27-2.24,3.2
		c-0.97,0.92-2.06,1.7-3.27,2.33c-1.21,0.63-2.51,1.12-3.89,1.45c-1.38,0.33-2.74,0.5-4.06,0.5c-2.34,0-4.47-0.48-6.41-1.45
		c-1.94-0.97-3.6-2.23-5-3.78c-1.4-1.56-2.49-3.32-3.27-5.3C231.19,181.14,230.8,179.12,230.8,177.07z"/>
	<path d="M292.97,193.39V161.2h14.47c1.5,0,2.9,0.31,4.17,0.93c1.27,0.62,2.37,1.44,3.3,2.45c0.92,1.01,1.64,2.16,2.17,3.45
		c0.52,1.28,0.78,2.58,0.78,3.88c0,2.08-0.53,3.98-1.59,5.69c-1.06,1.71-2.5,2.94-4.31,3.69l7.47,12.1h-7.14l-6.68-10.79h-6.27
		v10.79H292.97z M299.33,177.11h7.97c0.58,0,1.13-0.14,1.64-0.41c0.51-0.27,0.94-0.64,1.31-1.11c0.37-0.47,0.66-1.02,0.88-1.65
		c0.21-0.63,0.32-1.31,0.32-2.04c0-0.75-0.12-1.45-0.37-2.08c-0.25-0.63-0.58-1.19-0.99-1.65c-0.41-0.47-0.89-0.83-1.43-1.09
		c-0.54-0.26-1.08-0.38-1.64-0.38h-7.7V177.11z"/>
	<path d="M374.91,187.9v5.48h-22.72V161.2h22.31v5.48h-15.95v7.75h13.78v5.08h-13.78v8.38H374.91z"/>
	<path d="M417.77,161.2h5.62l12.44,32.18h-6.54l-3.04-8.02h-11.43l-3,8.02h-6.54L417.77,161.2z M425.1,180.97l-4.52-12.65
		l-4.7,12.65H425.1z"/>
	<path d="M489.25,166.69h-10.46v26.7h-6.31v-26.7h-10.46v-5.48h27.24V166.69z"/>
	<path d="M521.88,193.39V161.2h6.36v32.18H521.88z"/>
	<path d="M567,161.2l8.85,24.34l8.76-24.34h6.68l-12.77,32.18h-5.35l-12.86-32.18H567z"/>
	<path d="M646.09,187.9v5.48h-22.72V161.2h22.31v5.48h-15.95v7.75h13.78v5.08h-13.78v8.38H646.09z"/>
	<path d="M698.44,169.63c-0.21-0.21-0.61-0.5-1.17-0.86c-0.57-0.36-1.26-0.72-2.07-1.07c-0.81-0.35-1.7-0.64-2.65-0.88
		c-0.95-0.24-1.92-0.36-2.9-0.36c-1.75,0-3.06,0.32-3.92,0.95s-1.29,1.53-1.29,2.67c0,0.67,0.16,1.22,0.48,1.65
		c0.32,0.44,0.79,0.82,1.41,1.16c0.61,0.33,1.39,0.63,2.33,0.91c0.94,0.27,2.02,0.56,3.25,0.86c1.6,0.42,3.05,0.88,4.36,1.36
		c1.31,0.48,2.41,1.09,3.32,1.81c0.91,0.73,1.6,1.59,2.1,2.61c0.49,1.01,0.74,2.26,0.74,3.74c0,1.72-0.33,3.2-0.99,4.42
		c-0.66,1.22-1.55,2.21-2.67,2.97c-1.12,0.76-2.41,1.31-3.87,1.66c-1.46,0.35-2.99,0.52-4.59,0.52c-2.46,0-4.89-0.36-7.28-1.09
		c-2.4-0.72-4.55-1.75-6.45-3.08l2.81-5.39c0.28,0.27,0.78,0.63,1.5,1.07c0.72,0.44,1.57,0.88,2.56,1.31
		c0.98,0.44,2.07,0.81,3.27,1.11c1.2,0.3,2.43,0.45,3.69,0.45c3.5,0,5.25-1.1,5.25-3.31c0-0.7-0.2-1.28-0.6-1.77
		c-0.4-0.48-0.97-0.91-1.7-1.27c-0.74-0.36-1.63-0.69-2.67-1c-1.05-0.3-2.21-0.63-3.5-1c-1.57-0.42-2.93-0.88-4.08-1.38
		c-1.15-0.5-2.11-1.09-2.88-1.77c-0.77-0.68-1.34-1.46-1.73-2.36s-0.58-1.96-0.58-3.2c0-1.63,0.31-3.08,0.92-4.35
		c0.61-1.27,1.47-2.33,2.56-3.17c1.09-0.85,2.36-1.49,3.8-1.93c1.44-0.44,3-0.66,4.66-0.66c2.3,0,4.42,0.36,6.36,1.07
		c1.94,0.71,3.63,1.55,5.07,2.52L698.44,169.63z"/>
</g>
<path d="M450.13,142.55c0,1.75,0.31,3.44,0.88,5H230.8v-9h219.89C450.32,139.82,450.13,141.16,450.13,142.55z"/>
<path d="M472.86,138.55c0.6,1.2,0.94,2.57,0.94,4c0,1.85-0.56,3.57-1.52,5h-14.96c-0.96-1.43-1.52-3.15-1.52-5
	c0-1.43,0.34-2.8,0.94-4H472.86z"/>
<path d="M699.8,138.55v9H478.58c0.57-1.56,0.88-3.25,0.88-5c0-1.39-0.19-2.73-0.56-4H699.8z"/>
<path d="M473.8,142.55c0,1.85-0.56,3.57-1.52,5c-1.61,2.41-4.36,4-7.48,4s-5.87-1.59-7.48-4c-0.96-1.43-1.52-3.15-1.52-5
	c0-1.43,0.34-2.8,0.94-4c1.47-2.96,4.53-5,8.06-5s6.59,2.04,8.06,5C473.45,139.75,473.8,141.12,473.8,142.55z"/>
</svg>
